<svg width="4083.1942" height="2100" viewBox="0 0 4083.1942 2100" xmlns="http://www.w3.org/2000/svg" xmlns:xlink="http://www.w3.org/1999/xlink"><defs><clipPath id="clip-1"><rect x="0" y="0" width="4083.1942" height="2100" fill="none" fill-rule="nonzero" stroke="none" stroke-width="1" stroke-miterlimit="10"></rect></clipPath><radialGradient cx="3041.6047" cy="1037.3842" r="1036.8263" gradientUnits="userSpaceOnUse" id="color-1"><stop offset="0.2" stop-color="#ff0000"></stop><stop offset="1" stop-color="#2a213d"></stop></radialGradient><clipPath id="clip-2"><path d="M2669.4383,677.0452h710.6907v759.0513h-710.6907zM2669.4383,677.0452" id="clip1 1" fill="none" fill-rule="nonzero" stroke-miterlimit="10"></path></clipPath><clipPath id="clip-3"><path d="M3124.396,986.6581h255.733v201.853h-255.733zM3124.396,986.6581" id="clip2 1" stroke-miterlimit="10"></path></clipPath><clipPath id="clip-4"><path d="M3057.1117,852.0895h323.0173v269.1373h-323.0173zM3057.1117,852.0895" id="clip3 1" stroke-miterlimit="10"></path></clipPath><clipPath id="clip-5"><path d="M2669.4383,852.0895h253.1047v269.1373h-253.1047zM2669.4383,852.0895" id="clip4 1" stroke-miterlimit="10"></path></clipPath><clipPath id="clip-6"><path d="M2669.4383,986.6581h253.1047v201.853h-253.1047zM2669.4383,986.6581" id="clip5 1" stroke-miterlimit="10"></path></clipPath><clipPath id="clip-7"><path d="M2669.4383,1053.9425h320.389v201.853h-320.389zM2669.4383,1053.9425" id="clip6 1" stroke-miterlimit="10"></path></clipPath><radialGradient cx="3027.3056" cy="1055.2664" r="553.6525" gradientUnits="userSpaceOnUse" id="color-2"><stop offset="0" stop-color="#e30505"></stop><stop offset="1" stop-color="#adadad"></stop></radialGradient></defs><g clip-path="url(#clip-1)" id="Frame 1" fill="none" fill-rule="none" stroke="none" stroke-width="none" stroke-linecap="butt" stroke-linejoin="miter" stroke-miterlimit="none" stroke-dasharray="" stroke-dashoffset="0" font-family="none" font-weight="none" font-size="none" text-anchor="none" style="mix-blend-mode: normal"><rect x="0" y="0" width="4083.1942" height="2100" fill="none" fill-rule="nonzero" stroke="none" stroke-width="1" stroke-miterlimit="10"></rect><path d="M2009.0178,1050c0,-565.637 458.5394,-1024.1764 1024.1764,-1024.1764c565.637,0 1024.1763,458.5394 1024.1763,1024.1764c0,565.637 -458.5394,1024.1764 -1024.1763,1024.1764c-565.637,0 -1024.1764,-458.5394 -1024.1764,-1024.1764z" fill="url(#color-1)" fill-rule="nonzero" stroke="#ebebeb" stroke-width="50" stroke-miterlimit="10"></path><g stroke="none" stroke-width="3"><g id="surface46 1"><g clip-path="url(#clip-2)"><path d="M3263.4327,1062.353l99.6124,-111.1768l-142.9792,-31.0138l12.353,-148.2358l-136.9341,61.7649l-74.6435,-129.5749l-74.6435,129.5749l-136.9342,-61.7649l12.353,148.2358l-142.9792,31.0138l99.3495,111.1768l-99.3495,111.1768l149.2871,31.0138l-12.6158,148.2358l136.9341,-61.7649l68.5985,129.8377l74.6435,-129.8377l136.9341,61.7649l-12.353,-148.2358l149.2871,-31.0138zM3294.7094,1136.4709l-68.5985,-24.706l-43.3668,-61.7649l55.9826,18.6609zM3076.8239,1272.6165l-43.6297,67.81v-74.1179l43.6297,-61.7649zM2977.2115,907.8093l-68.3356,-24.7059l-43.6296,-55.457l74.6435,30.751zM3101.7927,858.3974l74.6435,-30.751l-43.6297,55.457l-68.3356,24.7059zM3188.7892,926.4702l-37.3217,49.4119v-74.1179l43.6296,-55.7198zM3020.8412,1241.6027l-55.9827,-80.4258l55.9827,-74.1178l55.9826,74.1178zM2914.921,1012.9411v-98.8238l93.5673,31.0139v92.5159zM3033.1942,945.1311l93.5673,-31.0139v98.8238l-93.5673,31.0139zM2852.8932,926.4702l-6.3079,-80.4258l43.6296,55.7198v74.1179zM2995.8724,1068.6609l-55.9826,74.1179l-93.3044,-24.706l62.2905,-74.1178zM2964.8585,1204.5437l43.6297,61.7649v74.1179l-43.6297,-67.81zM3045.81,1068.6609l86.9965,-31.0138l62.2906,74.1178l-93.3044,31.0139zM3313.3703,969.8371l-68.5984,74.1179l-86.9966,-31.0139l49.6747,-67.8099zM3070.516,846.0444l-49.6747,68.0728l-49.6748,-68.0728l49.6748,-86.4709zM2728.3121,969.8371l105.9203,-24.7059l49.6747,67.8099l-87.2593,31.0139zM2802.9556,1074.706l55.9827,-18.3981l-43.6297,55.457l-68.3356,24.706zM2753.2809,1161.1768l68.3356,-24.7059l74.6435,24.7059l-62.0277,18.6609zM2852.8932,1204.5437l80.6886,-24.7059v86.4709l-93.3044,43.3668zM3107.8377,1266.3086v-86.4709l80.9515,24.7059l12.6158,105.1318zM3201.405,1179.8377l-62.2906,-18.6609l74.6435,-24.7059l68.5985,24.7059zM3201.405,1179.8377" fill="#adadad" fill-rule="evenodd" stroke-miterlimit="10"></path><path d="M3263.4327,1062.353l99.6124,-111.1768l-142.9792,-31.0138l12.353,-148.2358l-136.9341,61.7649l-74.6435,-129.5749l-74.6435,129.5749l-136.9342,-61.7649l12.353,148.2358l-142.9792,31.0138l99.3495,111.1768l-99.3495,111.1768l149.2871,31.0138l-12.6158,148.2358l136.9341,-61.7649l68.5985,129.8377l74.6435,-129.8377l136.9341,61.7649l-12.353,-148.2358l149.2871,-31.0138zM3263.4327,1062.353" fill="none" fill-rule="nonzero" stroke-miterlimit="4"></path></g><g clip-path="url(#clip-3)" fill="none" fill-rule="nonzero"><path d="M3294.7094,1136.4709l-68.5985,-24.706l-43.3668,-61.7649l55.9826,18.6609zM3294.7094,1136.4709" stroke-miterlimit="4"></path></g><path d="M3076.8239,1272.6165l-43.6297,67.81v-74.1179l43.6297,-61.7649zM3076.8239,1272.6165" fill="none" fill-rule="nonzero" stroke-miterlimit="4"></path><path d="M2977.2115,907.8093l-68.3356,-24.7059l-43.6296,-55.457l74.6435,30.751zM2977.2115,907.8093" fill="none" fill-rule="nonzero" stroke-miterlimit="4"></path><path d="M3101.7927,858.3974l74.6435,-30.751l-43.6297,55.457l-68.3356,24.7059zM3101.7927,858.3974" fill="none" fill-rule="nonzero" stroke-miterlimit="4"></path><path d="M3188.7892,926.4702l-37.3217,49.4119v-74.1179l43.6296,-55.7198zM3188.7892,926.4702" fill="none" fill-rule="nonzero" stroke-miterlimit="4"></path><path d="M3020.8412,1241.6027l-55.9827,-80.4258l55.9827,-74.1178l55.9826,74.1178zM3020.8412,1241.6027" fill="none" fill-rule="nonzero" stroke-miterlimit="4"></path><path d="M2914.921,1012.9411v-98.8238l93.5673,31.0139v92.5159zM2914.921,1012.9411" fill="none" fill-rule="nonzero" stroke-miterlimit="4"></path><path d="M3033.1942,945.1311l93.5673,-31.0139v98.8238l-93.5673,31.0139zM3033.1942,945.1311" fill="none" fill-rule="nonzero" stroke-miterlimit="4"></path><path d="M2852.8932,926.4702l-6.3079,-80.4258l43.6296,55.7198v74.1179zM2852.8932,926.4702" fill="none" fill-rule="nonzero" stroke-miterlimit="4"></path><path d="M2995.8724,1068.6609l-55.9826,74.1179l-93.3044,-24.706l62.2905,-74.1178zM2995.8724,1068.6609" fill="none" fill-rule="nonzero" stroke-miterlimit="4"></path><path d="M2964.8585,1204.5437l43.6297,61.7649v74.1179l-43.6297,-67.81zM2964.8585,1204.5437" fill="none" fill-rule="nonzero" stroke-miterlimit="4"></path><path d="M3045.81,1068.6609l86.9965,-31.0138l62.2906,74.1178l-93.3044,31.0139zM3045.81,1068.6609" fill="none" fill-rule="nonzero" stroke-miterlimit="4"></path><g clip-path="url(#clip-4)" fill="none" fill-rule="nonzero"><path d="M3313.3703,969.8371l-68.5984,74.1179l-86.9966,-31.0139l49.6747,-67.8099zM3313.3703,969.8371" stroke-miterlimit="4"></path></g><path d="M3070.516,846.0444l-49.6747,68.0728l-49.6748,-68.0728l49.6748,-86.4709zM3070.516,846.0444" fill="none" fill-rule="nonzero" stroke-miterlimit="4"></path><g clip-path="url(#clip-5)" fill="none" fill-rule="nonzero"><path d="M2728.3121,969.8371l105.9203,-24.7059l49.6747,67.8099l-87.2593,31.0139zM2728.3121,969.8371" stroke-miterlimit="4"></path></g><g clip-path="url(#clip-6)" fill="none" fill-rule="nonzero"><path d="M2802.9556,1074.706l55.9827,-18.3981l-43.6297,55.457l-68.3356,24.706zM2802.9556,1074.706" stroke-miterlimit="4"></path></g><g clip-path="url(#clip-7)" fill="none" fill-rule="nonzero"><path d="M2753.2809,1161.1768l68.3356,-24.7059l74.6435,24.7059l-62.0277,18.6609zM2753.2809,1161.1768" stroke-miterlimit="4"></path></g><path d="M2852.8932,1204.5437l80.6886,-24.7059v86.4709l-93.3044,43.3668zM2852.8932,1204.5437" fill="none" fill-rule="nonzero" stroke-miterlimit="4"></path><path d="M3107.8377,1266.3086v-86.4709l80.9515,24.7059l12.6158,105.1318zM3107.8377,1266.3086" fill="none" fill-rule="nonzero" stroke-miterlimit="4"></path><path d="M3201.405,1179.8377l-62.2906,-18.6609l74.6435,-24.7059l68.5985,24.7059zM3201.405,1179.8377" fill="none" fill-rule="nonzero" stroke-miterlimit="4"></path></g></g><g fill="url(#color-2)" fill-rule="nonzero" stroke="none" stroke-width="3" stroke-miterlimit="10"><g><path d="M2784.9897,523.0593c-226.9864,-41.5253 -406.4597,1.9475 -477.9872,126.3766c-53.3753,92.8521 -38.1382,215.9799 36.9795,347.5895c3.0692,5.3843 8.1433,9.3223 14.1048,10.9468c5.9614,1.6244 12.3212,0.802 17.6786,-2.2861c11.155,-6.4287 15.0142,-20.7204 8.6222,-31.9298c-67.6726,-118.5408 -80.8613,-224.8009 -37.0662,-300.9412c59.4108,-103.3686 219.4774,-142.1445 429.3107,-103.749c7.7057,1.5297 15.66,-0.9452 21.1554,-6.5825c5.4955,-5.6373 7.7916,-13.6773 6.107,-21.3835c-2.0499,-9.3307 -9.5434,-16.4712 -18.9277,-18.0361zM2462.019,1156.9815c91.7736,101.3157 211.0149,196.3399 347.0033,275.2113c329.2526,190.9465 679.7777,241.9847 852.5221,123.6639c10.3508,-7.3722 12.9175,-21.7128 5.7711,-32.2447c-7.1463,-10.5319 -21.3731,-13.3754 -31.9889,-6.3937c-154.615,105.8981 -487.5856,57.4122 -803.0245,-125.5243c-131.9373,-76.5206 -247.3922,-168.525 -335.8447,-266.1703c-6.2928,-7.1709 -16.2943,-9.7777 -25.2643,-6.5848c-7.4038,2.6426 -12.9809,8.8584 -14.8307,16.5289c-1.8498,7.6706 0.2774,15.7609 5.6566,21.5137z"></path><path d="M3606.4583,1128.5434c148.6206,-176.3563 200.5223,-353.7436 129.15,-477.9252c-52.5222,-91.372 -163.5656,-139.615 -311.1187,-141.5396c-12.8528,-0.1656 -23.4099,10.1576 -23.5901,23.0675c-0.139,9.4607 5.4237,18.0691 14.0829,21.7937c2.8092,1.2139 5.8289,1.8601 8.8868,1.9017c132.7129,1.723 228.387,43.294 271.4248,118.1604c59.2739,103.1487 13.0062,261.3359 -124.3644,424.3392c-4.1324,4.7117 -6.2024,10.896 -5.7432,17.1582c0.4592,6.2623 3.4089,12.0752 8.1839,16.1279c4.7747,4.0467 10.9666,5.9991 17.1871,5.4193c6.2205,-0.5798 11.9491,-3.6432 15.901,-8.5032zM3224.501,530.8493c-134.3871,28.9284 -277.4147,85.47 -414.7671,165.1249c-339.9185,197.1235 -561.6495,487.7681 -530.8424,698.5378c1.0429,8.4106 6.5359,15.5956 14.3562,18.7784c7.8204,3.1828 16.7432,1.865 23.3205,-3.4442c6.5773,-5.3092 9.7788,-13.7782 8.3674,-22.1344c-27.3309,-187.1202 182.8355,-462.6431 508.0553,-651.2388c133.2512,-77.2813 271.7578,-132.0129 401.2682,-159.9148c12.1646,-3.0706 19.7218,-15.2681 17.092,-27.5869c-2.6299,-12.3188 -14.5016,-20.3314 -26.8501,-18.1221z"></path><path d="M2673.8322,1540.6203c77.7409,217.9319 204.8471,352.1352 347.8108,352.1352c104.2461,0 200.7002,-71.3747 275.9229,-197.0547c3.4067,-5.3194 4.5257,-11.797 3.1022,-17.9582c-1.7913,-7.7642 -7.3984,-14.0762 -14.8749,-16.7449c-7.4765,-2.6687 -15.7916,-1.3262 -22.059,3.5615c-2.4635,1.92 -4.5164,4.312 -6.0401,7.0431c-67.6087,112.9503 -150.6506,174.4134 -236.0511,174.4134c-118.7304,0 -232.1323,-119.7047 -303.97,-321.1677c-1.9913,-5.9605 -6.2832,-10.8676 -11.9114,-13.6187c-2.7877,-1.3572 -5.8163,-2.1438 -8.9096,-2.3141c-6.2488,-0.3308 -12.3675,1.8761 -16.9794,6.1242c-4.6119,4.2481 -7.3295,10.1805 -7.5413,16.4622c-0.1012,3.1112 0.4168,6.2114 1.5237,9.1189zM3383.6598,1497.9724c40.2276,-129.0985 61.815,-278.0707 61.815,-433.3069c0,-387.3093 -134.9437,-721.2067 -327.1814,-806.947c-11.6867,-4.9383 -25.1586,0.4251 -30.3039,12.0645c-5.1453,11.6394 -0.0716,25.2744 11.4127,30.6705c171.4533,76.4794 299.5403,393.3488 299.5403,764.2121c0,150.5806 -20.9395,294.8558 -59.6982,419.3491c-2.0268,5.9635 -1.5661,12.497 1.2774,18.114c4.3343,8.5725 13.4509,13.6064 22.9792,12.6884c9.5283,-0.918 17.526,-7.6008 20.159,-16.8446zM3822.0169,1475.0835c0.255,-40.1465 -20.9218,-77.3534 -55.4937,-97.5004c-34.5718,-20.1471 -77.2396,-20.1462 -111.8106,0.0023c-34.571,20.1485 -55.7463,57.3562 -55.4897,97.5027c0.3932,61.5179 50.1534,111.1793 111.3992,111.178c61.2459,-0.0013 111.004,-49.6646 111.3947,-111.1826zM3775.4618,1475.0835c-0.0076,35.9691 -29.0348,65.1259 -64.8441,65.1335c-35.8087,-0.0025 -64.8358,-29.1619 -64.835,-65.1305c0.0008,-35.9685 29.0293,-65.1266 64.838,-65.1274c35.8087,-0.0008 64.8386,29.1558 64.8411,65.1243zM2331.0624,1586.9799c29.546,0.0037 57.883,-11.7842 78.7752,-32.7697c20.8922,-20.9854 32.6277,-49.4488 32.6241,-79.1267c0.0024,-29.6783 -11.7341,-58.1417 -32.627,-79.127c-20.8929,-20.9853 -49.2303,-32.773 -78.7768,-32.7694c-29.5449,-0.0012 -57.8799,11.7876 -78.7709,32.7726c-20.8909,20.985 -32.6262,49.447 -32.6238,79.1237c-0.0024,29.6775 11.7335,58.1402 32.6254,79.1254c20.8919,20.9852 49.2282,32.7734 78.7738,32.771zM2331.0624,1540.217c-35.82,0 -64.8578,-29.1674 -64.8578,-65.1472c0,-35.9798 29.0378,-65.1473 64.8578,-65.1473c35.82,0 64.8578,29.1674 64.8578,65.1473c0,35.9798 -29.0378,65.1472 -64.8578,65.1472z"></path><path d="M3021.643,371.8556c45.0588,0.004 85.6812,-27.2618 102.9185,-69.0789c14.229,-34.5263 10.3631,-73.9082 -10.3053,-104.9782c-20.6683,-31.07 -55.4116,-49.728 -92.6133,-49.7356c-45.0596,-0.0077 -85.6856,27.2535 -102.9295,69.0688c-17.244,41.8152 -7.709,89.9471 24.1576,121.9465c20.8914,20.985 49.2267,32.7739 78.7719,32.773zM3021.643,325.0881c-26.2253,-0.0033 -49.8677,-15.8703 -59.9081,-40.2055c-6.5879,-15.9583 -6.5879,-33.893 0,-49.8514c6.5783,-15.9601 19.2017,-28.6398 35.0908,-35.2474c24.234,-10.0822 52.1282,-4.5084 70.6757,14.1224c18.5475,18.6308 24.0957,46.6496 14.0577,70.9915c-10.0381,24.3419 -33.6857,40.2133 -59.9161,40.2134z"></path></g></g><text x="0" y="1439.059" data-paper-data="{&quot;textContent&quot;:&quot;WRB&quot;}" fill="#c90000" fill-rule="nonzero" stroke="#dbdbdb" stroke-width="20" stroke-miterlimit="10" font-family="Reem Kufi" font-weight="400" font-size="1005" text-anchor="start">WRB</text><line x1="2009.4532" y1="1019.8461" x2="2012.2235" y2="1131.6305" fill="#e8e8e8" fill-rule="nonzero" stroke="#ededed" stroke-width="50" stroke-miterlimit="10"></line></g></svg>